# xmcd CD database file
#
# Track frame offsets:
#	150
#	11615
#	26285
#	37050
#	55017
#	66982
#	85567
#	101525
#	111180
#	121890
#
# Disc length: 1771 seconds
#
# Revision: 0
# Processed by: cddbd v1.5.2PL0 Copyright (c) Steve Scherf et al.
# Submitted via: CDex 1.70beta2
#
DISCID=7506e90a
DTITLE=小島麻由美 - セシルのブルース
DYEAR=1995
DGENRE=Blues
TTITLE0=おしゃべり！おしゃべり！
TTITLE1=セシルのブルース
TTITLE2=スキャット･ブルース
TTITLE3=恋の極楽特急
TTITLE4=先生のお気に入り
TTITLE5=ディビ・ドゥビ・ダー
TTITLE6=蜜蜂
TTITLE7=結婚相談所
TTITLE8=ろば
TTITLE9=皆殺しのブルース(インストゥルメンタル)
EXTD=YEAR: 1995
EXTT0=
EXTT1=
EXTT2=
EXTT3=
EXTT4=
EXTT5=
EXTT6=
EXTT7=
EXTT8=
EXTT9=
PLAYORDER=
